<?xml version="1.0" standalone="no"?>
<!DOCTYPE svg PUBLIC "-//W3C//DTD SVG 20010904//EN"
 "http://www.w3.org/TR/2001/REC-SVG-20010904/DTD/svg10.dtd">
<svg version="1.0" xmlns="http://www.w3.org/2000/svg"
 width="2000.000000pt" height="2000.000000pt" viewBox="0 0 2000.000000 2000.000000"
 preserveAspectRatio="xMidYMid meet">
<metadata>
Created by potrace 1.14, written by Peter Selinger 2001-2017
</metadata>
<g transform="translate(0.000000,2000.000000) scale(0.100000,-0.100000)"
fill="#000000" stroke="none">
<path d="M6379 14738 c-1 -2 -3 -322 -4 -713 -1 -390 -3 -712 -4 -715 -1 -4
-961 -5 -996 -1 -6 0 -10 31 -10 68 0 38 5 71 10 75 7 5 7 8 0 8 -6 0 -10 96
-9 270 1 148 -3 267 -7 264 -5 -3 -9 0 -9 6 0 7 -6 8 -18 1 -10 -5 -24 -6 -32
-1 -8 5 -21 5 -31 0 -9 -5 -19 -7 -22 -4 -10 10 -57 11 -57 1 0 -5 -5 -5 -13
2 -10 8 -17 7 -25 -1 -7 -7 -12 -8 -12 -2 0 10 -78 10 -87 0 -3 -3 -14 -1 -24
5 -14 7 -19 6 -19 -3 0 -9 -3 -9 -12 0 -7 7 -17 8 -30 1 -12 -7 -18 -6 -18 1
0 7 -6 8 -18 1 -11 -6 -24 -6 -33 0 -19 12 -32 11 -23 -2 5 -8 1 -8 -14 0 -14
8 -23 8 -27 1 -5 -8 -11 -8 -20 0 -10 8 -14 7 -18 -2 -4 -11 -6 -11 -6 0 -1 9
-6 10 -18 4 -10 -5 -27 -6 -38 -2 -11 4 -27 4 -36 -1 -8 -4 -21 -4 -28 0 -7 5
-22 6 -32 4 -19 -5 -19 -19 -17 -362 3 -332 4 -356 21 -355 9 1 17 -3 17 -8 0
-7 5 -6 13 1 10 8 17 7 25 -1 7 -7 12 -8 12 -2 0 5 9 10 20 10 11 0 20 -4 20
-9 0 -5 6 -5 13 2 10 8 17 7 25 -1 7 -7 12 -8 12 -2 0 5 9 10 20 10 11 0 20
-4 20 -9 0 -5 6 -5 13 1 8 7 18 7 27 2 8 -5 21 -5 32 1 12 7 18 6 18 -1 0 -6
5 -8 12 -4 19 12 48 12 48 1 0 -5 6 -4 14 2 10 9 16 9 21 1 5 -8 11 -8 19 -1
7 6 15 8 19 5 9 -10 68 -11 73 -2 3 5 12 4 20 -3 11 -9 14 -9 14 0 0 8 6 9 18
2 11 -6 24 -6 35 0 12 7 17 6 17 -2 0 -8 4 -9 13 0 10 8 17 7 25 -1 7 -7 12
-8 12 -2 0 14 37 11 51 -3 7 -7 8 -13 0 -17 -6 -4 -7 -16 -2 -29 4 -12 6 -40
4 -62 -5 -59 -5 -58 1 -87 4 -15 2 -30 -4 -33 -6 -4 -7 -13 -2 -23 7 -15 9
-260 2 -287 -1 -5 -1 -12 0 -15 7 -18 5 -88 -3 -83 -6 4 -7 1 -2 -7 12 -19 14
-80 3 -80 -5 0 -6 -6 -1 -12 8 -14 11 -257 3 -259 -3 -1 -165 -2 -360 -3
l-355 -2 -3 -373 c-2 -330 0 -373 13 -367 8 3 15 0 15 -6 0 -9 3 -9 11 -1 8 8
20 8 35 3 13 -5 25 -6 28 -2 3 5 30 5 61 2 30 -3 57 -4 59 -2 9 8 286 6 286
-2 0 -6 5 -5 11 1 8 8 20 8 35 3 13 -5 26 -5 28 -1 3 5 23 5 45 1 25 -4 44 -3
50 3 8 8 11 7 11 -2 0 -10 3 -11 13 -2 8 6 17 8 21 4 9 -9 3 28 -7 45 -5 6 -4
12 1 12 11 0 10 50 -1 68 -5 6 -5 12 0 12 10 0 10 356 0 366 -3 4 -3 14 2 23
10 20 9 62 -2 79 -5 6 -4 12 1 12 5 0 8 17 8 38 l-1 37 528 0 c498 0 528 1
523 18 -2 9 1 17 7 17 8 0 8 3 2 8 -13 9 -15 42 -3 42 7 0 6 5 -1 13 -8 10 -7
17 1 25 7 7 8 12 2 12 -5 0 -10 9 -10 20 0 11 4 20 9 20 5 0 5 6 -1 13 -7 8
-7 18 -2 27 5 8 5 21 -1 32 -7 13 -6 18 2 18 8 0 8 4 1 13 -7 8 -7 18 -2 27 5
8 5 21 0 30 -6 11 -5 21 2 28 7 7 8 12 2 12 -5 0 -10 9 -10 20 0 11 4 20 9 20
5 0 5 6 -2 13 -8 10 -7 17 1 25 7 7 8 12 2 12 -5 0 -10 9 -10 20 0 11 4 20 9
20 5 0 5 6 -1 13 -7 8 -7 18 -2 27 5 8 5 21 0 30 -6 11 -5 21 2 28 7 7 8 12 2
12 -5 0 -10 9 -10 20 0 11 4 20 9 20 5 0 5 6 -1 13 -7 8 -7 18 -2 27 5 8 5 21
-1 32 -7 13 -6 18 2 18 8 0 8 4 1 13 -7 8 -7 18 -2 27 5 8 5 21 0 30 -6 11 -5
21 2 28 7 7 8 12 2 12 -5 0 -10 9 -10 20 0 11 4 20 9 20 5 0 5 6 -2 13 -8 10
-7 17 1 25 7 7 8 12 2 12 -5 0 -10 9 -10 20 0 11 4 20 9 20 5 0 5 6 -1 13 -14
17 2 42 22 34 9 -4 16 -1 16 6 0 9 3 8 9 -1 4 -8 12 -14 16 -14 4 0 12 6 16
14 5 7 9 8 9 2 0 -14 30 -14 30 0 0 6 4 5 9 -2 4 -8 12 -14 16 -14 4 0 12 6
16 14 5 7 9 9 9 3 0 -6 50 -10 130 -10 72 0 130 4 130 8 0 5 5 5 11 1 17 -10
109 -12 109 -2 0 5 5 6 11 2 17 -10 109 -12 109 -2 0 5 5 6 11 2 17 -10 109
-12 109 -2 0 5 5 6 11 2 17 -10 109 -12 109 -2 0 5 8 4 18 -1 13 -7 23 -6 30
1 8 8 12 8 12 2 0 -6 7 -11 15 -11 8 0 15 5 15 11 0 6 4 5 9 -2 4 -8 12 -14
16 -14 4 0 12 6 16 14 5 7 9 8 9 2 0 -6 7 -11 15 -11 8 0 15 5 15 11 0 6 4 5
9 -2 4 -8 12 -14 16 -14 4 0 12 6 16 14 5 7 9 8 9 2 0 -6 7 -11 15 -11 8 0 15
5 15 11 0 6 4 5 9 -2 4 -8 12 -14 16 -14 4 0 12 6 16 14 5 7 9 8 9 2 0 -6 7
-11 15 -11 8 0 15 5 15 11 0 7 3 7 8 1 8 -12 142 -14 142 -2 0 4 9 3 20 -3 23
-12 22 -13 24 20 0 14 5 30 9 37 4 6 3 14 -2 17 -10 7 -9 25 2 43 4 6 3 14 -2
17 -5 4 -7 19 -4 34 6 32 6 40 -1 70 -2 12 0 22 5 22 6 0 7 6 3 12 -12 19 -12
48 0 48 8 0 8 3 1 8 -14 9 -13 55 0 64 6 5 6 8 -1 8 -12 0 -12 29 0 48 4 6 3
12 -1 12 -13 0 -11 44 1 52 8 5 7 8 -1 8 -12 0 -12 17 0 37 4 6 3 14 -2 17 -8
5 -8 27 -1 46 1 3 1 10 0 15 -7 32 -6 55 2 55 5 0 6 6 2 12 -12 19 -12 48 0
48 7 0 7 3 1 8 -11 8 -13 32 -3 48 4 6 4 14 1 18 -11 11 -10 46 1 46 7 0 7 3
1 8 -12 8 -13 32 -2 50 5 6 4 12 0 12 -11 0 -11 60 0 77 4 6 3 14 -2 17 -10 7
-9 25 2 43 4 6 3 14 -2 17 -5 4 -7 19 -4 34 6 32 6 40 -1 70 -2 12 0 22 5 22
6 0 7 6 3 12 -12 19 -12 48 0 48 8 0 8 3 1 8 -14 9 -13 55 0 64 6 5 6 8 -1 8
-12 0 -12 29 0 48 4 6 4 12 -1 12 -4 0 -9 11 -9 25 -1 15 2 22 9 18 6 -3 7 -1
3 5 -5 9 -196 12 -737 12 -401 0 -730 -1 -730 -2z"/>
<path d="M8074 14718 c1 -13 5 -29 9 -35 5 -7 4 -13 -1 -13 -12 0 -10 -43 3
-52 7 -5 6 -8 -1 -8 -12 0 -13 -58 -1 -77 4 -6 4 -14 -1 -17 -10 -6 -9 -66 1
-83 5 -7 4 -13 0 -13 -5 0 -9 -11 -9 -25 0 -14 4 -25 9 -25 4 0 5 -5 1 -12
-12 -18 -11 -58 1 -58 7 0 7 -3 0 -8 -13 -9 -15 -82 -3 -82 5 0 6 -6 2 -12
-11 -18 -12 -48 -2 -54 4 -3 5 -10 2 -16 -11 -18 -11 -88 0 -88 7 0 8 -3 1 -8
-11 -8 -13 -67 -3 -78 4 -4 3 -14 -1 -23 -14 -25 -14 -33 1 -42 7 -5 8 -9 2
-9 -9 0 -11 -31 -4 -50 1 -3 1 -9 0 -15 -6 -25 -5 -61 2 -77 5 -9 4 -19 0 -22
-10 -6 -9 -67 1 -83 5 -7 4 -13 0 -13 -5 0 -9 -11 -9 -25 0 -14 4 -25 9 -25 4
0 5 -5 1 -12 -12 -18 -11 -58 1 -58 7 0 7 -3 -1 -8 -8 -6 -10 -50 -3 -117 0
-5 -2 -20 -5 -32 -3 -14 0 -23 7 -23 8 0 8 -3 2 -8 -13 -9 -15 -62 -3 -62 5 0
6 -6 2 -12 -11 -18 -12 -48 -2 -54 4 -3 5 -10 2 -16 -11 -18 -11 -88 0 -88 7
0 8 -3 1 -8 -5 -4 -10 -16 -9 -27 1 -30 -5 -36 -25 -25 -10 5 -21 6 -25 3 -10
-11 -56 -9 -56 2 0 5 -4 4 -9 -3 -4 -8 -12 -14 -16 -14 -4 0 -12 6 -16 14 -5
7 -9 9 -9 3 0 -5 -16 -10 -35 -10 -19 0 -35 4 -35 9 0 6 -5 5 -12 -2 -7 -7
-17 -8 -30 -1 -10 5 -18 6 -18 2 0 -12 -134 -10 -142 2 -5 6 -8 6 -8 -1 0 -6
-7 -11 -15 -11 -8 0 -15 5 -15 11 0 6 -4 6 -12 -2 -7 -7 -17 -8 -30 -1 -10 5
-18 6 -18 2 0 -12 -134 -10 -142 2 -5 6 -8 6 -8 -1 0 -6 -7 -11 -15 -11 -8 0
-15 5 -15 11 0 6 -4 6 -12 -2 -7 -7 -17 -8 -30 -1 -10 5 -18 6 -18 2 0 -12
-134 -10 -142 2 -5 6 -8 6 -8 -1 0 -6 -7 -11 -15 -11 -8 0 -15 5 -15 11 0 6
-4 6 -12 -2 -7 -7 -17 -8 -30 -1 -10 5 -18 6 -18 2 0 -12 -134 -10 -142 2 -5
6 -8 6 -8 -1 0 -6 -7 -11 -15 -11 -8 0 -15 5 -15 11 0 6 -4 6 -12 -2 -7 -7
-17 -8 -30 -1 -10 5 -18 6 -18 2 0 -12 -134 -10 -142 2 -5 6 -8 5 -8 -3 0 -10
-5 -10 -21 -1 -15 8 -19 8 -15 0 4 -6 3 -11 -1 -11 -5 0 -9 -9 -9 -20 0 -11 4
-20 9 -20 4 0 5 -6 1 -12 -11 -18 -12 -48 -2 -48 5 0 6 -6 1 -12 -12 -20 -12
-38 -1 -38 7 0 7 -4 0 -12 -15 -19 -15 -30 0 -39 10 -7 10 -9 0 -9 -9 0 -10
-5 -3 -18 6 -11 6 -24 1 -32 -5 -9 -5 -19 1 -26 7 -8 6 -14 -1 -19 -7 -4 -7
-12 0 -24 5 -10 7 -20 5 -23 -9 -9 -12 -78 -2 -78 5 0 4 -7 -3 -15 -10 -12
-10 -15 1 -15 10 0 10 -3 1 -12 -7 -7 -8 -17 -2 -29 7 -11 7 -20 0 -24 -7 -4
-7 -12 0 -25 6 -10 6 -21 2 -24 -10 -6 -9 -36 0 -52 4 -5 3 -16 -2 -24 -5 -9
-5 -19 2 -27 7 -9 7 -17 0 -26 -7 -8 -7 -18 -2 -27 5 -8 6 -18 3 -23 -10 -17
-10 -57 1 -57 7 0 7 -3 1 -8 -12 -9 -15 -82 -3 -82 5 0 6 -6 2 -12 -11 -17
-12 -48 -4 -53 11 -7 -1 -55 -14 -56 -64 -5 -213 -2 -209 4 3 5 -3 5 -13 0
-11 -5 -189 -8 -396 -8 -207 1 -375 -2 -372 -7 3 -4 0 -8 -6 -8 -6 0 -8 -5 -5
-11 4 -6 7 -41 7 -79 0 -38 -3 -73 -7 -79 -3 -6 -3 -11 2 -11 4 0 8 -112 8
-249 0 -137 -2 -248 -4 -246 -1 2 -13 0 -26 -5 -13 -5 -25 -6 -28 -3 -8 8
-183 7 -196 -1 -6 -4 -11 -1 -11 6 0 10 -2 10 -9 -1 -7 -11 -10 -11 -15 0 -4
9 -8 10 -11 3 -4 -6 -24 -8 -56 -4 -28 4 -53 2 -56 -3 -3 -5 -9 -3 -14 4 -7
11 -9 11 -9 -1 0 -13 -1 -13 -11 0 -6 9 -12 11 -15 4 -3 -6 -25 -8 -59 -4 -36
4 -55 2 -55 -4 0 -7 -3 -8 -8 -1 -9 12 -42 16 -42 5 0 -5 -13 -5 -30 0 -19 5
-32 5 -36 -2 -4 -6 -10 -5 -16 3 -5 8 -11 10 -14 4 -2 -6 -37 -8 -89 -5 -53 3
-85 1 -85 -5 0 -7 -3 -7 -8 0 -9 12 -42 16 -42 5 0 -4 -16 -4 -35 0 l-35 8 0
-2824 0 -2824 4740 0 4740 0 0 28 c0 15 -6 34 -12 41 -10 11 -10 13 0 7 8 -5
12 0 12 16 0 13 -6 30 -12 37 -10 11 -10 13 0 7 9 -5 12 6 12 46 0 30 -6 60
-12 67 -10 11 -10 13 0 7 8 -5 12 2 12 26 0 19 -6 40 -12 47 -10 11 -10 13 0
7 8 -5 12 0 12 16 0 13 -6 30 -12 37 -10 11 -10 13 0 7 8 -5 12 0 12 16 0 13
-6 30 -12 37 -10 11 -10 13 0 7 8 -5 12 0 12 16 0 13 -6 30 -12 37 -10 11 -10
13 0 7 8 -5 12 0 12 16 0 13 -6 30 -12 37 -10 11 -10 13 0 7 9 -5 12 6 12 46
0 30 -6 60 -12 67 -10 11 -10 13 0 7 8 -5 12 0 12 16 0 13 -6 30 -12 37 -10
11 -10 13 0 7 8 -5 12 0 12 16 0 13 -6 30 -12 37 -10 11 -10 13 0 7 8 -5 12 0
12 16 0 13 -6 30 -12 37 -10 11 -10 13 0 7 8 -5 12 0 12 16 0 13 -6 30 -12 37
-10 11 -10 13 0 7 8 -5 12 0 12 16 0 13 -6 30 -12 37 -10 11 -10 13 0 7 8 -5
12 0 12 16 0 13 -6 30 -12 37 -10 11 -10 13 0 7 9 -5 12 6 12 46 0 30 -6 60
-12 67 -10 11 -10 13 0 7 8 -5 12 0 12 16 0 13 -6 30 -12 37 -10 11 -10 13 0
7 8 -5 12 0 12 16 0 13 -6 30 -12 37 -10 11 -10 13 0 7 8 -5 12 0 12 16 0 13
-6 30 -12 37 -10 11 -10 13 0 7 8 -5 12 0 12 16 0 13 -6 30 -12 37 -10 11 -10
13 0 7 8 -5 12 0 12 16 0 13 -6 30 -12 37 -10 11 -10 13 0 7 9 -5 12 8 12 56
0 37 -5 70 -12 77 -10 11 -10 13 0 7 8 -5 12 0 12 16 0 13 -6 30 -12 37 -10
11 -10 13 0 7 8 -5 12 0 12 16 0 13 -6 30 -12 37 -10 11 -10 13 0 7 8 -5 12 0
12 16 0 13 -6 30 -12 37 -10 11 -10 13 0 7 8 -5 12 0 12 16 0 13 -6 30 -12 37
-10 11 -10 13 0 7 9 -5 12 6 12 46 0 30 -6 60 -12 67 -11 11 -10 12 0 6 10 -5
13 0 10 21 -2 18 -8 28 -16 26 -8 -1 -11 2 -7 8 3 6 11 8 16 5 14 -9 11 39 -3
54 -10 11 -10 13 0 7 8 -5 12 0 12 16 0 13 -6 30 -12 37 -10 11 -10 13 0 7 8
-5 12 0 12 16 0 13 -6 30 -12 37 -10 11 -10 13 0 7 8 -5 12 0 12 16 0 13 -6
30 -12 37 -10 11 -10 13 0 7 8 -5 12 0 12 16 0 13 -6 30 -12 37 -10 11 -10 13
0 7 9 -5 12 6 12 46 0 30 -6 60 -12 67 -11 11 -10 12 0 6 10 -5 13 0 10 21 -2
18 -8 28 -16 26 -8 -1 -11 2 -7 8 3 6 11 8 16 5 14 -9 11 39 -3 54 -10 11 -10
13 0 7 8 -5 12 0 12 16 0 13 -6 30 -12 37 -10 11 -10 13 0 7 8 -5 12 0 12 16
0 13 -6 30 -12 37 -10 11 -10 13 0 7 9 -5 12 6 12 46 0 30 -6 60 -12 67 -10
11 -10 13 0 7 8 -5 12 2 12 26 0 19 -6 40 -12 47 -10 11 -10 13 0 7 8 -5 12 0
12 16 0 13 -6 30 -12 37 -10 11 -10 13 0 7 9 -5 12 6 12 46 0 30 -6 60 -12 67
-10 11 -10 13 0 7 8 -5 12 0 12 16 0 13 -6 30 -12 37 -10 11 -10 13 0 7 18
-11 15 34 -4 55 -12 13 -12 19 -3 25 7 4 10 3 5 -4 -3 -6 -2 -13 4 -17 15 -9
12 38 -2 54 -10 11 -10 13 0 7 19 -11 16 73 -4 95 -12 13 -12 19 -3 25 7 4 10
3 5 -4 -3 -6 -3 -13 2 -15 4 -3 7 16 7 43 0 30 -4 46 -11 43 -6 -2 -11 3 -11
11 0 8 4 13 9 10 10 -6 11 10 1 20 -11 11 -11 -112 -12 2864 l-1 2742 -2998 0
-2999 0 1 -22z"/>
<path d="M14302 14685 l0 -45 84 0 c80 0 84 -1 84 -22 1 -13 1 -137 2 -275 l0
-253 50 0 49 0 -2 273 -3 272 87 3 86 3 -1 44 -1 45 -217 0 -218 0 0 -45z"/>
<path d="M14779 14708 c0 -13 -1 -156 -1 -318 l-1 -295 43 0 43 0 0 185 c-1
102 -2 213 -4 248 -1 34 0 64 3 67 2 3 23 -55 46 -128 23 -72 59 -186 80 -252
l38 -120 44 0 43 0 78 240 c43 132 79 245 79 252 0 6 3 14 8 17 4 2 7 -112 6
-255 l-1 -259 46 0 46 0 -2 302 c-1 167 -2 311 -2 321 -1 14 -11 17 -65 17
l-63 0 -21 -57 c-11 -32 -49 -148 -85 -257 l-64 -199 -53 164 c-29 90 -53 168
-55 174 -1 5 -5 17 -8 25 -3 8 -15 45 -27 83 l-22 67 -64 0 c-59 0 -64 -2 -65
-22z"/>
</g>
</svg>
